<svg width="114" height="114" viewBox="0 0 114 114" fill="none" xmlns="http://www.w3.org/2000/svg">
<path fill-rule="evenodd" clip-rule="evenodd" d="M103.315 60.597L100.783 70.0402C97.8262 81.0621 96.3501 86.5756 93.002 90.1485C90.3601 92.9696 86.9413 94.9443 83.1776 95.8233C82.7051 95.934 82.2244 96.0188 81.7357 96.0774C77.2634 96.6297 71.8037 95.1683 61.8717 92.5093C50.8498 89.5522 45.3364 88.0761 41.7634 84.728C38.9415 82.0847 36.9667 78.6641 36.0887 74.8986C34.9743 70.1282 36.4504 64.6196 39.4075 53.5977L41.9345 44.1545L43.1271 39.7311C45.3511 31.588 46.8467 27.1059 49.7158 24.0413C52.3584 21.222 55.7771 19.249 59.5403 18.3714C64.3107 17.257 69.8241 18.7331 80.851 21.6902C91.868 24.6425 97.3814 26.1186 100.954 29.4618C103.777 32.1064 105.752 35.5288 106.629 39.296C107.744 44.0665 106.267 49.575 103.315 60.597ZM55.5176 56.1491C55.6424 55.684 55.8576 55.2481 56.1508 54.8662C56.4441 54.4842 56.8098 54.1639 57.2269 53.9233C57.644 53.6827 58.1045 53.5267 58.5819 53.4641C59.0594 53.4015 59.5445 53.4336 60.0095 53.5586L83.6175 59.8883C84.0948 60.0014 84.5445 60.2093 84.94 60.4994C85.3356 60.7896 85.6688 61.1562 85.9201 61.5775C86.1714 61.9988 86.3355 62.4663 86.4028 62.9522C86.4701 63.4381 86.4393 63.9325 86.312 64.4063C86.1847 64.88 85.9637 65.3234 85.6619 65.7102C85.3601 66.0969 84.9838 66.4192 84.5553 66.6579C84.1267 66.8965 83.6546 67.0468 83.1669 67.0997C82.6792 67.1526 82.1859 67.107 81.7161 66.9658L58.1082 60.641C57.17 60.389 56.3701 59.7749 55.8844 58.9335C55.3987 58.0922 55.2668 57.0876 55.5176 56.1491ZM51.7247 70.3188C51.9767 69.3806 52.5908 68.5808 53.4322 68.0951C54.2735 67.6093 55.2732 67.4774 56.2117 67.7283L70.3765 71.5261C70.8561 71.6368 71.3084 71.8429 71.7067 72.1322C72.1049 72.4215 72.4407 72.788 72.6943 73.2099C72.9478 73.6318 73.1137 74.1004 73.1822 74.5878C73.2507 75.0752 73.2204 75.5714 73.093 76.0468C72.9656 76.5223 72.7438 76.9672 72.4407 77.355C72.1377 77.7429 71.7597 78.0657 71.3292 78.3043C70.8987 78.5429 70.4245 78.6924 69.935 78.7438C69.4455 78.7952 68.9507 78.7475 68.48 78.6036L54.3152 74.8107C53.8502 74.6859 53.4142 74.4707 53.0323 74.1775C52.6504 73.8842 52.33 73.5185 52.0894 73.1014C51.8488 72.6843 51.6928 72.2238 51.6302 71.7464C51.5677 71.2689 51.5998 70.7838 51.7247 70.3188Z" fill="#0D7482"/>
<path d="M29.9737 69.0528C19.1429 69.0528 13.7288 69.0528 10.3644 65.3132C7 61.5787 7 55.5596 7 43.5264C7 31.4933 7 25.4767 10.3644 21.7371C13.7288 17.9974 19.1455 18 29.9737 18C40.802 18 46.2187 18 49.5831 21.7371C52.9475 25.4792 52.9475 31.4933 52.9475 43.5264C52.9475 55.5596 52.9475 61.5762 49.5831 65.3132C46.2187 69.0503 40.802 69.0528 29.9737 69.0528Z" fill="#80B4BB"/>
<path d="M37.6313 28.2129H22.3155C21.1285 28.2129 20.5363 28.2129 20.0487 28.3431C19.4 28.5171 18.8085 28.8588 18.3336 29.3337C17.8587 29.8087 17.517 30.4002 17.3429 31.0489C17.2102 31.5415 17.2102 32.1337 17.2102 33.3182C17.2102 34.5026 17.2102 35.0974 17.3404 35.5849C17.5145 36.2336 17.8561 36.8251 18.331 37.3001C18.806 37.775 19.3975 38.1166 20.0462 38.2907C20.5388 38.4235 21.1311 38.4235 22.3155 38.4235H37.6313C38.8183 38.4235 39.4105 38.4235 39.8981 38.2933C40.5468 38.1192 41.1383 37.7776 41.6132 37.3026C42.0881 36.8277 42.4298 36.2362 42.6039 35.5875C42.7366 35.0948 42.7366 34.5026 42.7366 33.3182C42.7366 32.1337 42.7366 31.539 42.6064 31.0514C42.4323 30.4027 42.0907 29.8112 41.6158 29.3363C41.1408 28.8613 40.5493 28.5197 39.9006 28.3456C39.4105 28.2129 38.8157 28.2129 37.6313 28.2129ZM19.7628 48.634C20.4398 48.634 21.0891 48.3651 21.5678 47.8864C22.0465 47.4077 22.3155 46.7584 22.3155 46.0814C22.3155 45.4044 22.0465 44.7551 21.5678 44.2764C21.0891 43.7977 20.4398 43.5287 19.7628 43.5287C19.0858 43.5287 18.4366 43.7977 17.9579 44.2764C17.4791 44.7551 17.2102 45.4044 17.2102 46.0814C17.2102 46.7584 17.4791 47.4077 17.9579 47.8864C18.4366 48.3651 19.0858 48.634 19.7628 48.634ZM19.7628 58.8446C20.4398 58.8446 21.0891 58.5757 21.5678 58.0969C22.0465 57.6182 22.3155 56.969 22.3155 56.292C22.3155 55.6149 22.0465 54.9657 21.5678 54.487C21.0891 54.0082 20.4398 53.7393 19.7628 53.7393C19.0858 53.7393 18.4366 54.0082 17.9579 54.487C17.4791 54.9657 17.2102 55.6149 17.2102 56.292C17.2102 56.969 17.4791 57.6182 17.9579 58.0969C18.4366 58.5757 19.0858 58.8446 19.7628 58.8446ZM29.9734 48.634C30.6504 48.634 31.2997 48.3651 31.7784 47.8864C32.2571 47.4077 32.526 46.7584 32.526 46.0814C32.526 45.4044 32.2571 44.7551 31.7784 44.2764C31.2997 43.7977 30.6504 43.5287 29.9734 43.5287C29.2964 43.5287 28.6471 43.7977 28.1684 44.2764C27.6897 44.7551 27.4208 45.4044 27.4208 46.0814C27.4208 46.7584 27.6897 47.4077 28.1684 47.8864C28.6471 48.3651 29.2964 48.634 29.9734 48.634ZM29.9734 58.8446C30.6504 58.8446 31.2997 58.5757 31.7784 58.0969C32.2571 57.6182 32.526 56.969 32.526 56.292C32.526 55.6149 32.2571 54.9657 31.7784 54.487C31.2997 54.0082 30.6504 53.7393 29.9734 53.7393C29.2964 53.7393 28.6471 54.0082 28.1684 54.487C27.6897 54.9657 27.4208 55.6149 27.4208 56.292C27.4208 56.969 27.6897 57.6182 28.1684 58.0969C28.6471 58.5757 29.2964 58.8446 29.9734 58.8446ZM40.184 48.634C40.861 48.634 41.5102 48.3651 41.9889 47.8864C42.4677 47.4077 42.7366 46.7584 42.7366 46.0814C42.7366 45.4044 42.4677 44.7551 41.9889 44.2764C41.5102 43.7977 40.861 43.5287 40.184 43.5287C39.5069 43.5287 38.8577 43.7977 38.379 44.2764C37.9003 44.7551 37.6313 45.4044 37.6313 46.0814C37.6313 46.7584 37.9003 47.4077 38.379 47.8864C38.8577 48.3651 39.5069 48.634 40.184 48.634ZM40.184 58.8446C40.861 58.8446 41.5102 58.5757 41.9889 58.0969C42.4677 57.6182 42.7366 56.969 42.7366 56.292C42.7366 55.6149 42.4677 54.9657 41.9889 54.487C41.5102 54.0082 40.861 53.7393 40.184 53.7393C39.5069 53.7393 38.8577 54.0082 38.379 54.487C37.9003 54.9657 37.6313 55.6149 37.6313 56.292C37.6313 56.969 37.9003 57.6182 38.379 58.0969C38.8577 58.5757 39.5069 58.8446 40.184 58.8446Z" fill="#0D7482"/>
</svg>
