<svg width="114" height="114" viewBox="0 0 114 114" fill="none" xmlns="http://www.w3.org/2000/svg">
<path d="M7 48C7 44.6863 9.68629 42 13 42H23C26.3137 42 29 44.6863 29 48V98H7V48Z" fill="#0D7482" fill-opacity="0.5"/>
<path d="M35 39C35 35.6863 37.6863 33 41 33H51C54.3137 33 57 35.6863 57 39V98H35V39Z" fill="#0D7482" fill-opacity="0.5"/>
<path d="M63 16C63 12.6863 65.6863 10 69 10H79C82.3137 10 85 12.6863 85 16V98H63V16Z" fill="#0D7482" fill-opacity="0.5"/>
<path d="M107 79.8983V91.415C107 99.0928 104.556 104.211 104.556 104.211H63.0105L54.0538 88.2159C53.2564 86.7472 53.0461 85.0077 53.4688 83.3772C53.8915 81.7467 54.9129 80.3575 56.3101 79.5127C57.7073 78.6679 59.3669 78.4361 60.9266 78.868C62.4864 79.2998 63.8197 80.3602 64.6357 81.8178L70.3421 91.415V56.865C70.3421 55.1681 70.9858 53.5407 72.1316 52.3408C73.2773 51.1409 74.8313 50.4668 76.4517 50.4668C78.0721 50.4668 79.6261 51.1409 80.7719 52.3408C81.9177 53.5407 82.5613 55.1681 82.5613 56.865V74.7798C82.5613 73.0829 83.205 71.4555 84.3508 70.2556C85.4966 69.0557 87.0506 68.3816 88.671 68.3816C90.2914 68.3816 91.8454 69.0557 92.9911 70.2556C94.1369 71.4555 94.7806 73.0829 94.7806 74.7798V79.8983C94.7806 78.2014 95.4243 76.574 96.5701 75.3741C97.7159 74.1742 99.2699 73.5002 100.89 73.5002C102.511 73.5002 104.065 74.1742 105.21 75.3741C106.356 76.574 107 78.2014 107 79.8983Z" fill="#0D7482"/>
</svg>
