<svg width="114" height="114" viewBox="0 0 114 114" fill="none" xmlns="http://www.w3.org/2000/svg">
<path d="M20.294 105.337H18.7646C13.2176 105.337 10.447 105.337 8.72351 103.613C7 101.901 7 99.125 7 93.578V87.0369C7 83.9899 7 82.4663 7.78234 81.1017C8.56469 79.737 9.74703 79.0546 12.1117 77.6782C27.6763 68.6253 49.776 63.5312 64.523 72.3253C65.5151 72.9174 66.3974 73.639 67.17 74.49C67.9615 75.355 68.5714 76.3701 68.9635 77.4751C69.3557 78.5801 69.5221 79.7526 69.453 80.9231C69.3839 82.0935 69.0806 83.2383 68.5612 84.2894C68.0417 85.3406 67.3166 86.2769 66.4288 87.0428C65.7215 87.7143 64.8584 88.1994 63.9171 88.4545C64.6229 88.3722 65.2994 88.28 65.9465 88.1781C71.3052 87.3251 75.8052 84.4546 79.9228 81.3428L90.558 73.3135C92.4564 71.936 94.7418 71.1941 97.0873 71.1941C99.4329 71.1941 101.718 71.936 103.617 73.3135C106.987 75.8605 108.023 80.0546 105.887 83.4781C103.399 87.4663 99.8932 92.5662 96.5285 95.6839C93.1638 98.8015 88.1404 101.59 84.0463 103.566C79.5051 105.76 74.4934 107.019 69.3935 107.848C59.0524 109.519 48.2761 109.26 38.0409 107.154C32.2016 105.952 26.2556 105.34 20.294 105.337Z" fill="#80B4BB"/>
<path d="M56.9995 46.3591C55.292 46.3591 53.8308 45.7516 52.6159 44.5367C51.401 43.3218 50.7925 41.8595 50.7904 40.15C50.7883 38.4404 51.3968 36.9792 52.6159 35.7664C53.8349 34.5535 55.2961 33.945 56.9995 33.9409C58.7028 33.9368 60.1651 34.5452 61.3862 35.7664C62.6073 36.9875 63.2148 38.4487 63.2086 40.15C63.2024 41.8513 62.5949 43.3135 61.3862 44.5367C60.1775 45.7599 58.7153 46.3673 56.9995 46.3591ZM42.641 18.4182H71.358L75.3163 10.5016C75.8337 9.46674 75.7944 8.45776 75.1983 7.47466C74.6023 6.49155 73.7102 6 72.5222 6H41.4768C40.2867 6 39.3947 6.49155 38.8007 7.47466C38.2066 8.45776 38.1673 9.46674 38.6827 10.5016L42.641 18.4182ZM45.8231 61.8818H68.1758C72.8327 61.8818 76.791 60.2654 80.0507 57.0325C83.3105 53.7996 84.9404 49.8279 84.9404 45.1173C84.9404 43.151 84.6041 41.2366 83.9314 39.3738C83.2588 37.5111 82.3015 35.8295 81.0597 34.329L72.9879 24.6273H41.0111L32.9393 34.329C31.6975 35.8295 30.7402 37.5111 30.0676 39.3738C29.3949 41.2366 29.0586 43.151 29.0586 45.1173C29.0586 49.8258 30.6761 53.7976 33.911 57.0325C37.1459 60.2674 41.1166 61.8839 45.8231 61.8818Z" fill="#0D7482"/>
</svg>
