<svg width="114" height="114" viewBox="0 0 114 114" fill="none" xmlns="http://www.w3.org/2000/svg">
<path d="M57.3601 57.36L77.1601 37.2M77.1601 37.2V22.08L87.0601 12L92.0101 22.08L101.91 27.12L92.0101 37.2H77.1601Z" stroke="#0D7482" stroke-width="9.45" stroke-linecap="round" stroke-linejoin="round"/>
<path d="M101.91 56.955C101.91 65.8462 99.2734 74.5378 94.3337 81.9306C89.394 89.3234 82.373 95.0854 74.1585 98.488C65.9441 101.891 56.9051 102.781 48.1847 101.046C39.4643 99.3116 31.4541 95.03 25.167 88.743C18.88 82.4559 14.5984 74.4457 12.8638 65.7253C11.1292 57.0049 12.0195 47.9659 15.422 39.7515C18.8246 31.537 24.5865 24.516 31.9794 19.5763C39.3722 14.6366 48.0638 12 56.955 12" stroke="#80B4BB" stroke-width="13.5" stroke-linecap="round" stroke-linejoin="round"/>
<path d="M77.0701 56.9548C77.0701 60.9332 75.8904 64.8222 73.6801 68.1301C71.4698 71.438 68.3283 74.0162 64.6528 75.5387C60.9772 77.0611 56.9328 77.4595 53.0309 76.6833C49.1289 75.9072 45.5448 73.9914 42.7316 71.1783C39.9185 68.3652 38.0027 64.781 37.2266 60.8791C36.4505 56.9772 36.8488 52.9327 38.3713 49.2572C39.8937 45.5816 42.4719 42.4401 45.7798 40.2298C49.0877 38.0196 52.9767 36.8398 56.9551 36.8398" stroke="#80B4BB" stroke-width="13.5" stroke-linecap="round" stroke-linejoin="round"/>
</svg>
