<svg width="114" height="114" viewBox="0 0 114 114" fill="none" xmlns="http://www.w3.org/2000/svg">
<path d="M88.25 64.0528L64.9167 107H49.7902L67.9741 68.296L64.273 60.8382L20.8247 47.594L18.25 37.8217L52.6868 7.99023H56.3879L31.9282 40.5219C46.1964 44.2937 74.8615 51.8887 75.3764 52.0945C75.8914 52.3002 84.1734 60.1524 88.25 64.0528Z" fill="#80B4BB" stroke="#80B4BB"/>
<path d="M70.9613 76.3192L72.3566 74.1642C72.7996 73.4716 73.2118 72.7913 73.5997 72.0974C74.36 70.7154 74.9818 69.312 75.3733 67.9255C76.1697 65.1265 75.7553 62.5591 73.6302 60.658C71.505 58.7189 67.996 57.4176 64.369 56.5105C56.6476 54.7312 48.7515 52.7512 41.1117 50.4287C39.1939 49.8457 37.2854 49.2401 35.3844 48.5947C33.512 47.9647 31.482 47.2282 29.6247 46.2311C27.7886 45.2373 25.863 43.9131 24.869 41.8829C24.3765 40.8844 24.2472 39.7551 24.4128 38.7292C24.5799 37.7005 24.9983 36.7643 25.5174 35.9302C26.597 34.221 27.9218 32.9882 29.1156 31.6655L32.8319 27.7845L40.3424 20.1044L53.1296 7.22383L43.3815 7C43.3815 7 21.1773 23.3493 11.2661 33.6669C2.64942 42.6344 7.35585 50.558 22.9431 55.8879C36.0992 60.3884 48.4131 63.8722 48.4131 63.8722C50.5346 64.7519 52.0438 66.2937 52.5456 68.0927C53.0474 69.8933 52.4924 71.7669 51.023 73.2294L17.1036 107H50.9451L65.3386 84.9551L70.9613 76.3192Z" fill="#0D7482"/>
<path d="M102.72 57.8333C98.0447 51.4874 90.0412 47.0115 80.7698 45.5565L47.9228 39.9373C46.5532 39.7236 45.4018 39.0184 44.8204 38.0383C44.2391 37.0598 44.3011 35.9253 44.9841 34.9866L66.8195 7.24723L56.1841 7L42.7378 21.4323L35.5548 29.2604L32.0234 33.1945C30.887 34.518 29.634 35.8264 28.9435 37.0506C28.2081 38.3161 28.0236 39.5222 28.5543 40.5235C29.0659 41.5494 30.317 42.5034 31.8259 43.27C33.3537 44.0546 35.0338 44.6452 36.8964 45.2376C38.7289 45.8253 40.5877 46.3826 42.4597 46.9169C49.9815 49.0616 57.5578 50.8262 65.3956 52.492C69.4142 53.4628 73.6679 54.7634 77.0564 57.6641C78.7083 59.1157 79.9405 61.0224 80.4089 62.9963C80.8906 64.9717 80.7327 66.9166 80.3111 68.7148C79.8671 70.5116 79.173 72.2 78.3582 73.8089C77.9463 74.6088 77.5021 75.4012 77.047 76.1644L75.7225 78.3673L70.4152 87.1436L58.3719 107H92.3232L105.165 78.6635C108.287 71.7726 107.395 64.1791 102.72 57.8333Z" fill="#0D7482"/>
</svg>
