<svg width="70" height="21" viewBox="0 0 70 21" fill="none" xmlns="http://www.w3.org/2000/svg">
<g clip-path="url(#clip0_3392_2)">
<path d="M24.1199 7.19214H25.2234L27.186 10.6328L29.1402 7.19214H30.2267V13.4432H29.1822V9.0827L27.5144 12.0382H26.8404L25.1556 9.07431V13.4437H24.1194V7.19263L24.1199 7.19214Z" fill="#2D2D2D"/>
<path d="M30.9509 11.2032C30.9509 9.82345 31.9281 8.84436 33.2166 8.84436C34.3958 8.84436 35.4573 9.65368 35.3563 11.4248H31.9281C32.012 12.1404 32.543 12.6344 33.301 12.6344C33.8569 12.6344 34.3284 12.3704 34.6574 11.8848L35.348 12.4385C34.9097 13.077 34.2191 13.5458 33.2756 13.5458C31.8856 13.5458 30.9509 12.5579 30.9509 11.2037V11.2032ZM34.3709 10.6668C34.2445 10.0366 33.7979 9.7129 33.2083 9.7129C32.585 9.7129 32.113 10.1047 31.9617 10.6668H34.3709Z" fill="#2D2D2D"/>
<path d="M37.8239 13.5453C36.6701 13.5453 35.9707 12.8214 35.9707 11.6207V8.93811H37.0152V11.5867C37.0152 12.2169 37.31 12.5574 37.8239 12.5574C38.3379 12.5574 38.6327 12.2169 38.6327 11.5867V8.93811H39.6772V11.6207C39.6772 12.8214 38.9865 13.5453 37.8239 13.5453Z" fill="#2D2D2D"/>
<path d="M42.5325 7.19214H44.394C45.6996 7.19214 46.5166 7.92448 46.5166 9.13402C46.5166 10.3436 45.6996 11.0419 44.394 11.0419H43.6272V13.4437H42.532V7.19263L42.5325 7.19214ZM44.394 10.0282C45.0344 10.0282 45.4048 9.69611 45.4048 9.13402C45.4048 8.57194 45.0344 8.23143 44.394 8.23143H43.6272V10.0287H44.394V10.0282Z" fill="#2D2D2D"/>
<path d="M47.0728 6.86841H48.1172V13.4432H47.0728V6.86841Z" fill="#2D2D2D"/>
<path d="M48.7573 11.1948C48.7573 9.80658 49.7598 8.85266 50.9727 8.85266C51.554 8.85266 52.0928 9.07424 52.413 9.48285L52.4213 8.93754H53.3477V13.4431H52.4213L52.413 12.8978C52.0928 13.3064 51.554 13.528 50.9727 13.528C49.7598 13.528 48.7573 12.5657 48.7573 11.1943V11.1948ZM51.1074 12.5573C51.8151 12.5573 52.3793 12.0549 52.3793 11.1948C52.3793 10.3346 51.8151 9.82336 51.1074 9.82336C50.3577 9.82336 49.8018 10.3771 49.8018 11.1948C49.8018 12.0125 50.3577 12.5573 51.1074 12.5573Z" fill="#2D2D2D"/>
<path d="M56.0266 8.83545C57.1804 8.83545 57.8798 9.5594 57.8798 10.7601V13.4427H56.8353V10.7941C56.8353 10.1639 56.5405 9.82342 56.0266 9.82342C55.5126 9.82342 55.2178 10.1639 55.2178 10.7941V13.4427H54.1733V10.7601C54.1733 9.5594 54.864 8.83545 56.0266 8.83545Z" fill="#2D2D2D"/>
<path d="M60.4992 8.83545C61.653 8.83545 62.3525 9.5594 62.3525 10.7601V13.4427H61.308V10.7941C61.308 10.1639 61.0132 9.82342 60.4992 9.82342C59.9853 9.82342 59.6905 10.1639 59.6905 10.7941V13.4427H58.646V10.7601C58.646 9.5594 59.3366 8.83545 60.4992 8.83545Z" fill="#2D2D2D"/>
<path d="M62.9414 11.2032C62.9414 9.82345 63.9185 8.84436 65.2071 8.84436C66.3863 8.84436 67.4478 9.65368 67.3468 11.4248H63.9185C64.0025 12.1404 64.5335 12.6344 65.2915 12.6344C65.8474 12.6344 66.3189 12.3704 66.6479 11.8848L67.3385 12.4385C66.9002 13.077 66.2096 13.5458 65.2661 13.5458C63.8761 13.5458 62.9414 12.5579 62.9414 11.2037V11.2032ZM66.3614 10.6668C66.235 10.0366 65.7884 9.7129 65.1988 9.7129C64.5755 9.7129 64.1035 10.1047 63.9522 10.6668H66.3614Z" fill="#2D2D2D"/>
<path d="M69.4613 8.93811H70.0006V9.89203H69.5628C69.1836 9.89203 69.0323 10.0455 69.0323 10.4373V13.4437H67.9878V10.463C67.9878 9.40693 68.51 8.9386 69.4618 8.9386L69.4613 8.93811Z" fill="#2D2D2D"/>
<path d="M24.1199 14.6295H27.4725V15.6599H25.2151V17.2016H27.4134V18.2404H25.2151V20.8806H24.1199V14.6295Z" fill="#2D2D2D"/>
<path d="M28.1968 14.3058H29.2413V15.6259H28.1968V14.3058ZM28.1968 16.3755H29.2413V20.8811H28.1968V16.3755Z" fill="#2D2D2D"/>
<path d="M31.9111 16.2733C33.0649 16.2733 33.7643 16.9973 33.7643 18.1979V20.8805H32.7198V18.232C32.7198 17.6018 32.425 17.2613 31.9111 17.2613C31.3971 17.2613 31.1023 17.6018 31.1023 18.232V20.8805H30.0579V18.1979C30.0579 16.9973 30.7485 16.2733 31.9111 16.2733Z" fill="#2D2D2D"/>
<path d="M34.3538 18.6321C34.3538 17.244 35.3563 16.29 36.5691 16.29C37.1504 16.29 37.6893 16.5116 38.0095 16.9202L38.0178 16.3749H38.9441V20.8805H38.0178L38.0095 20.3352C37.6893 20.7438 37.1504 20.9654 36.5691 20.9654C35.3563 20.9654 34.3538 20.0031 34.3538 18.6317V18.6321ZM36.7039 19.9947C37.4116 19.9947 37.9758 19.4923 37.9758 18.6321C37.9758 17.772 37.4116 17.2607 36.7039 17.2607C35.9542 17.2607 35.3982 17.8144 35.3982 18.6321C35.3982 19.4499 35.9542 19.9947 36.7039 19.9947Z" fill="#2D2D2D"/>
<path d="M41.6228 16.2733C42.7766 16.2733 43.476 16.9973 43.476 18.1979V20.8805H42.4315V18.232C42.4315 17.6018 42.1367 17.2613 41.6228 17.2613C41.1088 17.2613 40.814 17.6018 40.814 18.232V20.8805H39.7695V18.1979C39.7695 16.9973 40.4602 16.2733 41.6228 16.2733Z" fill="#2D2D2D"/>
<path d="M44.0657 18.6322C44.0657 17.2608 45.0345 16.3158 46.3904 16.3158C46.5924 16.3158 46.837 16.3415 47.0981 16.3755V17.3378C46.8624 17.3038 46.6603 17.2865 46.5085 17.2865C45.6324 17.2865 45.1102 17.8486 45.1102 18.6322C45.1102 19.4159 45.6324 19.9691 46.5085 19.9691C46.6603 19.9691 46.8624 19.9523 47.0981 19.9267V20.889C46.837 20.9314 46.5924 20.9487 46.3904 20.9487C45.034 20.9487 44.0657 20.012 44.0657 18.6322Z" fill="#2D2D2D"/>
<path d="M47.4348 18.6406C47.4348 17.2608 48.4119 16.2817 49.7005 16.2817C50.8797 16.2817 51.9412 17.0911 51.8402 18.8622H48.4119C48.4959 19.5778 49.0269 20.0717 49.7849 20.0717C50.3408 20.0717 50.8123 19.8077 51.1413 19.3221L51.8319 19.8758C51.3936 20.5144 50.703 20.9832 49.7595 20.9832C48.3695 20.9832 47.4348 19.9953 47.4348 18.6411V18.6406ZM50.8548 18.1042C50.7284 17.474 50.2818 17.1503 49.6922 17.1503C49.0689 17.1503 48.5969 17.5421 48.4456 18.1042H50.8548Z" fill="#2D2D2D"/>
<path d="M52.5142 14.3058H53.5586V15.6259H52.5142V14.3058ZM52.5142 16.3755H53.5586V20.8811H52.5142V16.3755Z" fill="#2D2D2D"/>
<path d="M55.8663 16.3755H56.4057V17.3294H55.9678C55.5886 17.3294 55.4373 17.4829 55.4373 17.8747V20.8811H54.3928V17.9004C54.3928 16.8443 54.9151 16.376 55.8668 16.376L55.8663 16.3755Z" fill="#2D2D2D"/>
<path d="M56.5403 18.6322C56.5403 17.2608 57.5682 16.2728 58.8738 16.2728C60.1794 16.2728 61.2068 17.2608 61.2068 18.6322C61.2068 20.0036 60.1789 21 58.8738 21C57.5687 21 56.5403 20.0036 56.5403 18.6322ZM58.8733 20.0036C59.6059 20.0036 60.1618 19.4415 60.1618 18.6322C60.1618 17.8229 59.6059 17.2608 58.8733 17.2608C58.1407 17.2608 57.5843 17.8229 57.5843 18.6322C57.5843 19.4415 58.1402 20.0036 58.8733 20.0036Z" fill="#2D2D2D"/>
<path d="M6.38502 8.1983C5.44499 9.14876 4.15793 10.4501 1.72194 10.4501H0V13.9332H1.72242C2.69077 13.9332 3.10466 13.5556 3.94952 12.7019C4.88956 11.7514 6.17662 10.4501 8.61261 10.4501H10.335V6.96704H8.61261C7.64426 6.96704 7.23037 7.34456 6.38551 8.1983H6.38502Z" fill="#E75C1A"/>
<path d="M20.6696 3.48355H18.9472C16.5112 3.48355 15.2241 4.78488 14.2841 5.73535C13.4397 6.58909 13.0253 6.96661 12.057 6.96661H10.3345V3.48355H8.61212C6.17613 3.48355 4.88907 4.78488 3.94903 5.73535C3.10466 6.58909 2.69028 6.96661 1.72194 6.96661H0V5.22458C0 2.33915 2.313 0 5.16727 0H20.6696V3.48355Z" fill="#E75C1A"/>
<path d="M20.6696 13.9332H18.9472C17.9788 13.9332 17.5649 14.3107 16.7201 15.1645C15.78 16.115 14.493 17.4163 12.057 17.4163H10.3345V13.9332H8.61212C7.64377 13.9332 7.22989 14.3107 6.38502 15.1645C5.44499 16.115 4.15793 17.4163 1.72194 17.4163H0V20.8993H20.6696" fill="#E75C1A"/>
<path d="M20.6695 10.4496H18.9471C16.5111 10.4496 15.224 11.7509 14.284 12.7014C13.4396 13.5551 13.0252 13.9327 12.0569 13.9327H10.3345V10.4496H12.0569C14.4929 10.4496 15.7799 9.14827 16.72 8.19781C17.5644 7.34407 17.9787 6.96655 18.9471 6.96655H20.6695V10.4496Z" fill="#E75C1A"/>
</g>
<defs>
<clipPath id="clip0_3392_2">
<rect width="70" height="21" fill="white"/>
</clipPath>
</defs>
</svg>
